<svg xmlns="http://www.w3.org/2000/svg" data-name="Layer 1" viewBox="0 150 512 180" class="svg-black"><g><path d="M92.68,286.77a2.64,2.64,0,0,1,.19,1.11c0,.74-.56,1.84-1.66,3.32a21.45,21.45,0,0,1-2.4,2.4,25.36,25.36,0,0,1-5,3.32,40.67,40.67,0,0,1-7.66,2.95,38.86,38.86,0,0,1-10.61,1.29,19.11,19.11,0,0,1-8.3-1.94,21,21,0,0,1-7.19-5.72,30.85,30.85,0,0,1-5.17-9.4,39,39,0,0,1-2-13.2,48.48,48.48,0,0,1,6.55-24.53,27.37,27.37,0,0,1,6.37-7.57A11.11,11.11,0,0,1,62.61,236a16.28,16.28,0,0,1,6,1.2,24,24,0,0,1,5.53,3,15.86,15.86,0,0,1,4,4.15,8.67,8.67,0,0,1,1.47,4.7,9,9,0,0,1-2.49,5.72,32.24,32.24,0,0,1-6,5.45,41.9,41.9,0,0,1-7,4.06,14.82,14.82,0,0,1-5.54,1.56,2.41,2.41,0,0,1-1.93-1,3.78,3.78,0,0,1-.83-2.49,4.58,4.58,0,0,1,2.3-4.06,37.31,37.31,0,0,1,5.08-2.68,27.1,27.1,0,0,0,5.07-2.85,5.39,5.39,0,0,0,2.3-4.62,5.62,5.62,0,0,0-.92-1.84c-.61-1-2.28-1.48-5-1.48-1.23,0-2.65.71-4.24,2.12a25.13,25.13,0,0,0-4.61,5.72,35.72,35.72,0,0,0-3.69,8.49,36.38,36.38,0,0,0-1.48,10.61,20.76,20.76,0,0,0,1.75,8.67,21.16,21.16,0,0,0,4.52,6.55,20,20,0,0,0,6.46,4.15,20.26,20.26,0,0,0,7.56,1.47,17.06,17.06,0,0,0,6-1.2c2.15-.79,4.18-1.66,6.09-2.58s3.56-1.78,5-2.58a8.48,8.48,0,0,1,2.67-1.2,1.9,1.9,0,0,1,1.2.55A2.6,2.6,0,0,1,92.68,286.77Z" style="transition: 50ms linear;"></path><path d="M129.21,303a4.49,4.49,0,0,1-2.58.74q-1.66,0-3.41-3.13a49.22,49.22,0,0,1-3.42-7.94q-1.65-4.79-3.13-10.42t-2.59-10.52c-.73-3.25-1.32-6-1.75-8.2s-.64-3.45-.64-3.7A29.11,29.11,0,0,0,111,256c-.43-2.09-1-5.35-1.66-9.78S108,236,107.17,228.93s-1.64-15.83-2.5-26.29a21.2,21.2,0,0,1,.56-4.24q.55-2.58,2.58-2.58,2.58,0,4,3.5A42.18,42.18,0,0,1,114,208q.83,5.17,1.2,10.8c.25,3.75.55,7,.92,9.87q.73,5.9,1.39,10.7c.43,3.2.86,6.36,1.29,9.5s1,6.43,1.66,9.87,1.5,7.26,2.49,11.44l7.38,30.62A2.45,2.45,0,0,1,129.21,303Z" style="transition: 100ms linear;"></path><path d="M232.34,267.77c0,2.21-1,5-3,8.21a44.25,44.25,0,0,1-8.21,9.5,50.16,50.16,0,0,1-12,7.84,32.86,32.86,0,0,1-14.2,3.23,24.31,24.31,0,0,1-7-1.11,31.12,31.12,0,0,1-7.2-3.23,28.19,28.19,0,0,1-6.27-5.16,19.31,19.31,0,0,1-4.06-6.92,20.4,20.4,0,0,0-2.67,3.69q-1.58,2.58-3.42,5.26a25,25,0,0,1-4,4.61,7,7,0,0,1-4.62,1.94,4.58,4.58,0,0,1-4-2.5,22.26,22.26,0,0,1-2.49-5.53,37,37,0,0,1-1.3-5.81c-.24-1.85-.36-2.89-.36-3.14a49.53,49.53,0,0,1,1.29-8.39,81.22,81.22,0,0,1,3.87-12.82,47.22,47.22,0,0,1,6.55-11.81q4-5.16,9.32-5.17a2.57,2.57,0,0,1,2.67,1.76,9.84,9.84,0,0,1,.65,3.41v5.53a5.31,5.31,0,0,0,1.93,1,7.86,7.86,0,0,1,1.85.74,3.2,3.2,0,0,1,1.29,1.38,7,7,0,0,1,.46,2.95,13.38,13.38,0,0,1-.18,2.31,10.27,10.27,0,0,0-.19,1.94,59.52,59.52,0,0,0,.74,9.4,22.15,22.15,0,0,0,3,8.21,17.61,17.61,0,0,0,6.09,5.91q3.87,2.31,10.33,2.3a26,26,0,0,0,13.75-3.41,42.52,42.52,0,0,0,9.41-7.56,60.43,60.43,0,0,0,6-7.57q2.22-3.4,3.69-3.41A2.12,2.12,0,0,1,232.34,267.77Zm-64.76-8.12a2.79,2.79,0,0,0-.36-1.38,2.4,2.4,0,0,1-.37-1.2,2.25,2.25,0,0,1,.37-1.29,2.68,2.68,0,0,0,.36-1.48,1,1,0,0,0-.36-.83.78.78,0,0,1-.37-.64c-1.11.24-2.25,1.29-3.42,3.13a45.57,45.57,0,0,0-3.32,6.46,49.59,49.59,0,0,0-2.49,7.47,27.5,27.5,0,0,0-.92,6.18,19.57,19.57,0,0,0,.74,4.24,8.85,8.85,0,0,0,1.66,3.88q3.14-6.46,5.81-12.55A29.68,29.68,0,0,0,167.58,259.65Z" style="transition: 200ms linear;"></path><path d="M245.44,221.28q0,.38-1.29,1.47a34.94,34.94,0,0,1-3.05,2.31,30.69,30.69,0,0,1-3.59,2.12,7.12,7.12,0,0,1-3,.92c-.49,0-1.13,0-1.93-.09a7.08,7.08,0,0,1-2.4-.64,6.62,6.62,0,0,1-2.12-1.57,3.82,3.82,0,0,1-.93-2.68,7.72,7.72,0,0,1,1.85-4.89,5.88,5.88,0,0,1,4.8-2.3,14.29,14.29,0,0,1,2.49.46,36.87,36.87,0,0,1,4,1.2,21.51,21.51,0,0,1,3.6,1.66C244.91,219.86,245.44,220.54,245.44,221.28Zm6.09,69c0,.86-.65,1.6-1.94,2.21a7.61,7.61,0,0,1-2.86.92c-1.23,0-2.34-.8-3.32-2.4a27.8,27.8,0,0,1-2.58-5.53q-1.11-3.14-1.85-6c-.49-1.9-.86-3.23-1.11-4-.36-1.23-.86-2.71-1.47-4.43s-1.2-3.38-1.75-5-1-3-1.39-4.25a17,17,0,0,1-.55-2,11.43,11.43,0,0,1,1-4.79c.68-1.48,1.51-2.21,2.49-2.21s2.28.86,3.51,2.58a37.07,37.07,0,0,1,3.6,6.55,85.44,85.44,0,0,1,3.23,8.67c1,3.13,1.84,6.09,2.58,8.85s1.32,5.17,1.75,7.2A30.55,30.55,0,0,1,251.53,290.28Z" style="transition: 300ms linear;"></path><path d="M312,222.75a28.58,28.58,0,0,1-6.83,5.45q-4.43,2.67-8.85,4.88t-7.75,3.79c-2.22,1-3.32,1.75-3.32,2.12a21.2,21.2,0,0,0,.73,3.32c.49,1.84,1.08,4,1.76,6.55s1.38,5.14,2.12,7.84,1.35,5.1,1.84,7.19c.25,1.24.56,2.83.93,4.8s.7,3.94,1,5.9.58,3.73.83,5.26.37,2.37.37,2.49a19.23,19.23,0,0,1-.92,5.72c-.62,2-1.6,2.95-2.95,2.95a2.79,2.79,0,0,1-2-.92,11,11,0,0,1-1.66-2.12,10.52,10.52,0,0,1-1.11-2.31,5.67,5.67,0,0,1-.37-1.66,10,10,0,0,1,.09-1.1,13.85,13.85,0,0,0,.09-1.66,66.45,66.45,0,0,0-1.1-10.15q-.37-2-1.48-6.27c-.74-2.83-1.47-5.72-2.21-8.67q-1.29-5.17-3-11.26a8.64,8.64,0,0,0-.93-2.58,11.47,11.47,0,0,0-4.33,1.57q-3,1.56-6.92,3.87t-8.12,5q-4.25,2.69-7.93,5t-6.36,3.88a12,12,0,0,1-3.23,1.57,5,5,0,0,1-3.88-1.66,5.45,5.45,0,0,1-1.47-3.69q0-1.11,3-3.23t7.56-4.71q4.53-2.58,9.78-5.35c3.51-1.84,6.76-3.5,9.78-5s6.55-3.2,10.61-5.16q-1.67-8.49-2.77-15.13-.93-5.72-1.75-10.52c-.56-3.19-.83-4.92-.83-5.16a5.5,5.5,0,0,1,1-3.6,3,3,0,0,1,2.31-1.2c1.35,0,2.21.92,2.58,2.77q2,10,3.78,17.71a120.9,120.9,0,0,0,3.42,12.54,37.74,37.74,0,0,0,5.72-2.12q4-1.75,8.48-3.78t8-3.6a21.8,21.8,0,0,1,4.15-1.57c.74,0,1.2.25,1.38.74A6.47,6.47,0,0,0,312,222.75Z" style="transition: 400ms linear;"></path><path d="M375.13,272.56a14.06,14.06,0,0,1-.55,3.79,27.63,27.63,0,0,1-1.11,3.23c-.25.36-1.39,1.63-3.41,3.78a66,66,0,0,1-7.57,6.73,63.29,63.29,0,0,1-10.15,6.37,23.9,23.9,0,0,1-10.79,2.86,19.46,19.46,0,0,1-6.36-1.11,17.38,17.38,0,0,1-6-3.6,19.47,19.47,0,0,1-4.52-6.18,20.94,20.94,0,0,1-1.75-9,41.91,41.91,0,0,1,2.95-16.05,61.29,61.29,0,0,1,5.9-11.44,24.86,24.86,0,0,1,3.42-4.15q2.12-2.12,4.15-3.87a31.88,31.88,0,0,1,3.78-2.86,5.89,5.89,0,0,1,2.49-1.11,5.44,5.44,0,0,1,3.05.92c.92.62,1.38,1.23,1.38,1.85a3.84,3.84,0,0,1-.83,2.49,15.57,15.57,0,0,1-2.31,2.21q-1.47,1.2-3.5,3.14a34.44,34.44,0,0,0-4.25,5.07A46.11,46.11,0,0,0,332.6,268a36.19,36.19,0,0,0-2.12,11.17,9.25,9.25,0,0,0,3.6,7.65,11.86,11.86,0,0,0,7.47,2.86A24.47,24.47,0,0,0,354,286.59a44.46,44.46,0,0,0,9.32-7,72.6,72.6,0,0,0,6.27-7q2.4-3.13,3.51-3.13C374.45,269.43,375.13,270.47,375.13,272.56Z" style="transition: 500ms linear;"></path><path d="M448.92,272q.93.93.93,1.11a8.35,8.35,0,0,1-1,2.21,27.12,27.12,0,0,1-2.67,3.88,24.92,24.92,0,0,1-3.6,3.59,6.06,6.06,0,0,1-3.78,1.57,11.26,11.26,0,0,1-6.28-1.57,13.35,13.35,0,0,1-4-4,19.2,19.2,0,0,1-2.4-5.26c-.55-1.91-1-3.72-1.38-5.44-.25-.86-.5-1.29-.74-1.29s-1.11,1.32-2.22,4-2.3,5.54-3.59,8.67-2.53,6-3.69,8.67-1.94,4-2.31,4a7,7,0,0,1-5.63-2.86,23.2,23.2,0,0,1-3.69-6.64,48,48,0,0,1-2.12-7.75q-.74-4-.92-6.18-.56-5-2.4-16.6t-3.13-28.23c-.25-2.33-.53-4.46-.84-6.36s-.64-4-1-6.37-.68-5-.92-7.93-.37-6.58-.37-10.89q0-.36.18-2.4c.12-1.35.31-2.82.56-4.42a16,16,0,0,1,1.2-4.25c.55-1.22,1.2-1.84,1.93-1.84a3,3,0,0,1,2.4,1.57,18.19,18.19,0,0,1,1.94,3.59,22.16,22.16,0,0,1,1.2,3.88A16.28,16.28,0,0,1,401,191a34.82,34.82,0,0,1-.37,5.17,28.71,28.71,0,0,0-.37,4.42,66.55,66.55,0,0,0,.46,7c.31,2.83.71,5.71,1.2,8.67s.92,5.81,1.29,8.58.67,5,.92,6.73c0,.12.12,1,.37,2.58s.52,3.6.83,6,.62,5,.92,7.75.65,5.47,1,8.11.71,5,1,7,.53,3.48.65,4.34a6.26,6.26,0,0,0,.28,1.57c.18.67.37,1.44.55,2.3a20.29,20.29,0,0,0,.65,2.4,4.11,4.11,0,0,0,.92,1.66c.74-1.47,1.69-3.75,2.86-6.82s2.4-6.21,3.69-9.41,2.52-6,3.69-8.4,2.18-3.59,3-3.59a4.63,4.63,0,0,1,2.4.55,8.54,8.54,0,0,0,2.4.92c1.23.49,1.84,1.14,1.84,1.94a13.25,13.25,0,0,0,.37,2.86q.38,2.2,1.2,5.81t1.94,7A26.7,26.7,0,0,0,437.3,272c1,1.6,2,2.4,2.95,2.4.49,0,1.17-.65,2-1.94a4.49,4.49,0,0,1,3.51-2.12,3.81,3.81,0,0,1,1.29.46A10.69,10.69,0,0,1,448.92,272Z" style="transition: 600ms linear;"></path><path d="M472.54,294.33a2.92,2.92,0,0,1-1.11,2.13,15.74,15.74,0,0,1-2.49,1.84,14.81,14.81,0,0,1-2.68,1.29,9,9,0,0,1-1.47.46,3.34,3.34,0,0,1-2.49-.83,6.11,6.11,0,0,1-1.3-1.84,6.34,6.34,0,0,1-.55-1.94q-.09-.92-.09-1.29a6.85,6.85,0,0,1,.37-1.94,8.52,8.52,0,0,1,1.1-2.3,8.81,8.81,0,0,1,1.76-1.94,3.53,3.53,0,0,1,2.3-.83,6.48,6.48,0,0,1,4.52,2A6.81,6.81,0,0,1,472.54,294.33Z" style="transition: 700ms linear;"></path></g></svg>